<svg xmlns="http://www.w3.org/2000/svg" width="48" height="48" viewBox="0 0 48 48"><path fill="#000" fill-rule="evenodd" d="M 24 0 A 23.999998 23.999998 0 0 0 0 24 A 23.999998 23.999998 0 0 0 24 48 A 23.999998 23.999998 0 0 0 48 24 A 23.999998 23.999998 0 0 0 24 0 z M 20.023438 14 L 29.070312 14 A 0.50005 0.50005 0 0 1 29.376953 14.146484 L 32.392578 17.162109 A 0.50005 0.50005 0 0 1 32.523438 17.638672 L 32.523438 17.951172 L 34.044922 17.951172 A 0.50005 0.50005 0 0 1 34.544922 18.451172 L 34.544922 20.400391 L 37.263672 20.400391 A 0.4415093 0.56635276 52.061236 0 1 37.646484 20.892578 L 34.601562 33 A 0.4415093 0.56635276 52.061236 0 1 33.96875 33.492188 L 13.398438 33.492188 A 0.4415093 0.56635276 52.061236 0 1 13.041016 33.292969 L 13.03125 33.292969 L 13.03125 33.271484 A 0.4415093 0.56635276 52.061236 0 1 13.015625 33 L 13.03125 32.939453 L 13.015625 18.451172 L 13.015625 16.480469 A 0.50005 0.50005 0 0 1 13.521484 15.980469 L 16.546875 16.019531 L 19.523438 16.019531 L 19.523438 14.5 A 0.50005 0.50005 0 0 1 20.023438 14 z M 20.523438 15 L 20.523438 20.400391 L 31.523438 20.400391 L 31.523438 18.015625 L 29.023438 18.015625 A 0.50005 0.50005 0 0 1 28.523438 17.515625 L 28.523438 15 L 20.523438 15 z M 29.523438 15.707031 L 29.523438 17.015625 L 30.832031 17.015625 L 29.523438 15.707031 z M 21.523438 16 L 26.523438 16 L 26.523438 17 L 21.523438 17 L 21.523438 16 z M 14.015625 16.986328 L 14.015625 18.451172 L 14.027344 28.980469 L 16.060547 20.892578 A 0.4415093 0.56635276 52.061236 0 1 16.693359 20.400391 L 19.523438 20.400391 L 19.523438 17.019531 L 16.544922 17.019531 A 0.50005 0.50005 0 0 1 16.539062 17.019531 L 14.015625 16.986328 z M 21.523438 18 L 27.523438 18 L 27.523438 19 L 21.523438 19 L 21.523438 18 z M 32.523438 18.951172 L 32.523438 20.400391 L 33.544922 20.400391 L 33.544922 18.951172 L 32.523438 18.951172 z M 16.953125 21.384766 L 14.154297 32.507812 L 33.708984 32.507812 L 36.507812 21.384766 L 16.953125 21.384766 z "/></svg>