<svg xmlns="http://www.w3.org/2000/svg" width="25" height="25" viewBox="0 0 25 25"><g transform="translate(0 -1027.362)"><path fill-rule="evenodd" d="M 12.5 0 A 12.5 12.5 0 0 0 0 12.5 A 12.5 12.5 0 0 0 12.5 25 A 12.5 12.5 0 0 0 25 12.5 A 12.5 12.5 0 0 0 12.5 0 z M 6.4589844 5 L 14.166016 5 L 18 8.8183594 L 18 21 L 6.4589844 21 L 6.4589844 5.5 L 6.4589844 5 z M 7.4570312 5.9980469 L 7.4570312 20.003906 L 17.001953 20.003906 L 17.001953 9.234375 L 13.753906 5.9980469 L 7.4570312 5.9980469 z " transform="translate(0 1027.362)"/></g></svg>