<svg xmlns="http://www.w3.org/2000/svg" width="25" height="25" viewBox="0 0 25 25"><defs><linearGradient id="a"><stop offset="0" stop-color="#24f3d2"/><stop offset=".394" stop-color="#0674f0"/><stop offset=".507" stop-color="#6961b5"/><stop offset=".813" stop-color="#f34660"/><stop offset="1" stop-color="#ee078d"/></linearGradient></defs><path d="M 5.2832031 0 C 2.3562344 0 3.270118e-017 2.3562344 0 5.2832031 L 0 19.716797 C 0 22.643766 2.3562344 25 5.2832031 25 L 19.716797 25 C 22.643766 25 25 22.643766 25 19.716797 L 25 5.2832031 C 25 2.3562344 22.643766 3.270118e-017 19.716797 0 L 5.2832031 0 z M 7 5.0058594 L 15.005859 5.0058594 L 19 8.8183594 L 19 21.005859 L 7 21.005859 L 7 5.5058594 L 7 5.0058594 z M 7.9960938 6.0039062 L 7.9960938 20.007812 L 18.003906 20.007812 L 18.003906 10.001953 L 14 10.019531 L 14 6.0039062 L 7.9960938 6.0039062 z M 15 6.3808594 L 15 9.0175781 L 17.751953 9.0058594 L 15 6.3808594 z "/></svg>